<?xml version="1.0" ?><!DOCTYPE svg  PUBLIC '-//W3C//DTD SVG 1.1//EN'  'http://www.w3.org/Graphics/SVG/1.1/DTD/svg11.dtd'><svg enable-background="new 0 0 512 512" height="512px" id="Calque_1" version="1.1" viewBox="0 0 512 512" width="512px" xml:space="preserve" xmlns="http://www.w3.org/2000/svg" xmlns:xlink="http://www.w3.org/1999/xlink"><g><g><path d="M496.51,480.881l-21.83-36.11c-0.91-1.5-2.529-2.409-4.279-2.409H429.89v-22.13c0-2.761-2.229-5-5-5    h-42.25v-10.61c45.96-14.01,79.49-56.811,79.49-107.29c0-61.35-49.5-111.35-110.66-112.149l-14.7-80.34    c64.2-10,117.61-56.771,120.03-58.921c1-0.89,1.601-2.14,1.67-3.479s-0.399-2.65-1.3-3.64l-12.841-14    c-0.92-1.011-2.22-1.591-3.59-1.62c-1.359,0-2.681,0.51-3.649,1.479c-44.95,45.38-137.689,53.59-138.63,53.67    c-0.08,0.011-0.15,0.04-0.24,0.05c-0.08,0.011-0.16,0-0.239,0.021c-0.091,0.01-0.171,0.05-0.25,0.07    c-0.171,0.04-0.33,0.08-0.489,0.14c-0.16,0.06-0.312,0.12-0.46,0.18c-0.142,0.07-0.28,0.15-0.421,0.23    c-0.149,0.08-0.29,0.17-0.42,0.27c-0.12,0.09-0.239,0.19-0.359,0.29c-0.12,0.11-0.24,0.23-0.351,0.351    c-0.109,0.109-0.211,0.229-0.301,0.35c-0.1,0.13-0.188,0.26-0.279,0.4c-0.08,0.14-0.159,0.27-0.229,0.41    c-0.07,0.149-0.141,0.3-0.189,0.449c-0.061,0.15-0.109,0.301-0.149,0.45c-0.05,0.16-0.08,0.32-0.11,0.49    c-0.029,0.149-0.05,0.31-0.06,0.47c-0.011,0.17-0.011,0.351-0.011,0.521c0.011,0.09-0.011,0.17,0,0.26    c0.011,0.08,0.029,0.16,0.04,0.24c0.021,0.08,0.011,0.159,0.021,0.239l19.59,107.021c-18.02,6.189-34.22,16.899-47.05,31.189    c-12.93,14.391-21.86,31.801-26.01,50.551l-78.33-4.859l5.27-9.15h10.24c2.76,0,5-2.239,5-5c0-2.76-2.24-5-5-5h-26.26    c-2.761,0-5,2.24-5,5c0,2.761,2.239,5,5,5h4.479l-4.87,8.46l-16.689-1.04l-27.12-148.409l56.34-10.19    c1.74-0.32,3.18-1.53,3.8-3.19c0.561-1.539,5.33-15.25-1.21-24.619c-2.43-3.48-7.41-7.641-17.33-7.641    c-1.989,0-4.14,0.17-6.41,0.49c-3.659,0.52-7.409,2.42-11.39,4.42c-5.64,2.84-12.03,6.05-19.22,6.061    c-1.181,0-2.37-0.091-3.53-0.261c-5.49-0.819-11.29-3.51-17.42-6.37c-8.88-4.13-18.96-8.81-30.59-8.81    c-1.641,0-3.3,0.09-4.92,0.28C41.08,69.77,29,77.68,24.56,88.31c-3.78,9.04-1.77,19.25,5.67,28.72    c0.94,1.21,2.391,1.91,3.931,1.91h36.81l28.1,153.729c-17.229,9.45-28.93,27.75-28.93,48.75c0,18.761,9.351,35.37,23.63,45.44    l-10.8,18.77h-9.23c-2.76,0-5,2.24-5,5c0,2.761,2.24,5,5,5h26.25c2.761,0,5-2.239,5-5c0-2.76-2.239-5-5-5H94.5l7.93-13.77    c4.87,2.26,10.12,3.83,15.62,4.59l7.09,38.78H87.1c-2.76,0-5,2.239-5,5v22.13H41.6c-1.75,0-3.37,0.909-4.28,2.409L15.27,481.23    c-0.93,1.55-0.96,3.479-0.069,5.05c0.88,1.569,2.55,2.54,4.35,2.54h472.899c0,0,0.011,0,0.021,0c2.761,0,5-2.24,5-5    C497.47,482.719,497.111,481.711,496.51,480.881z M304.77,87.73c20.631-2.4,93.37-13.38,135.66-52.391l5.83,6.36    c-14.609,11.811-68.08,51.79-125.931,54.82c-2.71,0.14-4.811,2.41-4.739,5.12c0.07,2.71,2.29,4.87,5,4.87l6.33,0.01l14.449,78.99    c-6.17,0.47-12.25,1.439-18.18,2.89L304.77,87.73z M320.691,199.43c8.579-2.58,17.579-4,26.71-4.23l0.399-0.01    c0.729-0.01,1.46-0.03,2.189-0.03c56.319,0,102.141,45.84,102.141,102.17c0,56.32-45.82,102.15-102.141,102.15    c-39.71,0-75.311-22.66-92.229-58.171l17.729-5.04c14.421,27.54,43.2,45.12,74.5,45.12c46.34,0,84.04-37.71,84.04-84.061    c0-46.35-37.7-84.06-84.04-84.06c-19.221,0-38.01,6.649-52.899,18.729c-13.561,11-23.41,26.061-28.061,42.74l-18.42-1.141    C258.981,238.58,285.96,209.81,320.691,199.43z M372.64,407.179v8.051h-17.65v-5.87C361,409.09,366.901,408.36,372.64,407.179z     M344.99,409.36v5.87H161.56l-8.09-44.24l94.54-26.91C265.58,382.44,302.85,407.51,344.99,409.36z M335.151,319.29l15.63-4.45    c2.681-0.119,5.239-0.819,7.55-2.079l40.32,40.319c-13.03,11.38-30.051,18.311-48.66,18.311c-18.181,0-35.399-6.739-48.66-18.279    L335.151,319.29z M294.24,346.059c-3.369-3.84-6.359-8.061-8.899-12.601l30.05-8.55L294.24,346.059z M342.441,297.33    c0-2.021,0.779-3.91,2.21-5.34c1.42-1.42,3.319-2.21,5.34-2.21c2.011,0,3.91,0.79,5.34,2.229c1.41,1.432,2.189,3.32,2.189,5.32    c0,2.021-0.789,3.91-2.21,5.34c-1.43,1.42-3.319,2.21-5.319,2.21c-2.01,0-3.891-0.779-5.311-2.188    c-0.061-0.07-0.13-0.142-0.199-0.2C343.159,301.08,342.441,299.26,342.441,297.33z M365.401,305.69    c1.38-2.54,2.119-5.392,2.119-8.36c0-2.95-0.729-5.79-2.1-8.319l40.319-40.33c11.37,13.029,18.29,30.04,18.29,48.649    c0,18.62-6.931,35.65-18.311,48.67L365.401,305.69z M358.38,281.92c-2.439-1.34-5.181-2.06-8.03-2.12    c-0.021,0-0.04-0.01-0.061-0.01l-11.489-0.72l-37.439-37.44c13.181-11.479,30.34-18.359,48.63-18.359    c18.63,0,35.66,6.93,48.689,18.34L358.38,281.92z M323.72,278.139l-44.46-2.761c3.11-10.01,8.3-19.05,15.021-26.689    L323.72,278.139z M334.63,288.83c-1.42,2.58-2.189,5.479-2.189,8.5c0,4.13,1.42,8.04,4.029,11.189L281,324.3    c-3.36-8.568-5.07-17.619-5.07-26.97c0-4.05,0.33-8.1,0.99-12.08L334.63,288.83z M248.75,283.5l18.149,1.13    c-0.641,4.19-0.971,8.44-0.971,12.7c0,10.28,1.82,20.25,5.41,29.72l-17.47,4.971c-4.011-11.09-6.051-22.739-6.051-34.689    C247.82,292.69,248.13,288.05,248.75,283.5z M238.75,282.88c-0.61,4.761-0.931,9.602-0.931,14.45c0,12.88,2.15,25.45,6.41,37.431    l-75.21,21.399c7.65-9.521,12.25-21.601,12.25-34.74c0-17.55-8.189-33.21-20.939-43.399L238.75,282.88z M36.69,108.94    c-4.09-5.97-5.069-11.61-2.91-16.78C36.8,84.94,45.92,79.28,56.46,78.07c1.25-0.14,2.52-0.21,3.79-0.21c9.42,0,18.04,4,26.37,7.88    c6.81,3.17,13.25,6.16,20.17,7.19c1.649,0.239,3.34,0.369,5,0.369c9.569,0,17.42-3.949,23.72-7.13    c3.22-1.62,6.27-3.159,8.31-3.449c1.79-0.261,3.471-0.391,4.99-0.391c4.49,0,7.561,1.13,9.12,3.351    c2.33,3.319,1.66,9.109,0.79,12.81l-57.78,10.45H36.69z M81.13,118.94h16.09l26.86,146.96c-5.431,0.148-10.66,1.09-15.59,2.699    L81.13,118.94z M107.45,363.15l8.18-14.21c3.14,1.159,6.53,1.79,10.07,1.79c16.159,0,29.31-13.15,29.31-29.312    s-13.15-29.31-29.31-29.31c-16.16,0-29.311,13.148-29.311,29.31c0,9.04,4.12,17.141,10.58,22.521l-8.18,14.22    c-11.3-8.311-18.65-21.68-18.65-36.74c0-25.09,20.38-45.5,45.45-45.56l5.72,0.35c22.49,2.78,39.96,21.98,39.96,45.21    c0,25.12-20.439,45.562-45.569,45.562C119.21,366.98,113.04,365.61,107.45,363.15z M128.2,317.09c-2.4-1.38-5.45-0.56-6.83,1.841    l-9.301,16.149c-3.51-3.5-5.68-8.33-5.68-13.66c0-10.649,8.66-19.31,19.311-19.31c10.649,0,19.31,8.659,19.31,19.31    c0,10.651-8.66,19.312-19.31,19.312c-1.721,0-3.37-0.25-4.96-0.671l9.3-16.141C131.41,321.519,130.59,318.46,128.2,317.09z     M151.39,415.23h-16.08l-7-38.312c5.41-0.25,10.62-1.29,15.53-2.989L151.39,415.23z M92.1,425.23h327.79v17.13H92.1V425.23z     M28.42,478.82l16-26.46h423.159l16,26.46H28.42z" fill="#DAE8EB"/><path d="M145.01,321.42c0,5.75-2.521,10.92-6.521,14.46c-3.409,3.011-7.89,4.852-12.789,4.852    c-1.721,0-3.37-0.25-4.961-0.671l4.181-7.25l5.12-8.891c1.37-2.399,0.55-5.46-1.84-6.83c-2.4-1.38-5.45-0.56-6.83,1.841l-4,6.949    l-5.301,9.2c-3.51-3.5-5.68-8.33-5.68-13.66c0-7.02,3.76-13.17,9.38-16.55c2.9-1.75,6.3-2.76,9.931-2.76    C136.35,302.11,145.01,310.769,145.01,321.42z" fill="#DAE8EB"/><path d="M372.64,407.179v8.051h-17.65v-5.87C361,409.09,366.901,408.36,372.64,407.179z" fill="#DAE8EB"/><polygon fill="#DAE8EB" points="483.579,478.82 28.42,478.82 44.42,452.36 467.579,452.36 473.039,461.389   "/><rect fill="#DAE8EB" height="17.13" width="327.79" x="92.1" y="425.23"/><path d="M151.39,415.23h-16.08c0,0-0.51-2.812-1.27-6.972l-0.351-1.869c-0.16-0.891-0.33-1.841-0.51-2.811    l-0.84-4.59l-0.29-1.58l-0.44-2.41c-0.05-0.27-0.1-0.54-0.149-0.81l-0.29-1.61c-0.05-0.271-0.101-0.54-0.15-0.8l-0.29-1.601    c-0.05-0.261-0.1-0.521-0.14-0.779l-0.29-1.562l-0.41-2.26c-0.63-3.45-1.189-6.5-1.58-8.66c5.41-0.25,10.62-1.29,15.53-2.989    L151.39,415.23z" fill="#DAE8EB"/><path d="M124.08,265.9c-5.431,0.148-10.66,1.09-15.59,2.699L81.13,118.94h16.09L124.08,265.9z" fill="#DAE8EB"/><path d="M171.27,321.42c0,13.13-5.59,24.99-14.51,33.312c-8.14,7.6-19.07,12.25-31.06,12.25    c-6.49,0-12.66-1.37-18.25-3.83l8.18-14.21c3.14,1.159,6.53,1.79,10.07,1.79c2.22,0,4.38-0.25,6.46-0.73    c13.06-2.939,22.85-14.64,22.85-28.58c0-10.22-5.26-19.229-13.21-24.479c-3.98-2.631-8.64-4.312-13.66-4.721    c-0.8-0.08-1.62-0.109-2.439-0.109c-10.21,0-19.21,5.25-24.46,13.18c-3.061,4.63-4.851,10.181-4.851,16.13    c0,9.04,4.12,17.141,10.58,22.521l-8.18,14.22c-11.3-8.311-18.65-21.68-18.65-36.74c0-16.159,8.46-30.39,21.18-38.47    c7.03-4.47,15.36-7.07,24.271-7.09l5.72,0.35C153.8,278.99,171.27,298.19,171.27,321.42z" fill="#00CEFF"/><path d="M271.34,327.05l-2.18,0.62l-15.29,4.351c-4.011-11.09-6.051-22.739-6.051-34.689    c0-4.64,0.311-9.28,0.931-13.83l13.16,0.82l4.989,0.31c-0.641,4.19-0.971,8.44-0.971,12.7    C265.93,307.61,267.75,317.58,271.34,327.05z" fill="#00CEFF"/><path d="M357.52,297.33c0,2.021-0.789,3.91-2.21,5.34c-0.14,0.141-0.29,0.28-0.439,0.4    c-1.369,1.17-3.079,1.81-4.88,1.81c-2.01,0-3.891-0.779-5.311-2.188c-0.061-0.07-0.13-0.142-0.199-0.2    c-1.32-1.41-2.04-3.23-2.04-5.16c0-2.021,0.779-3.91,2.21-5.34c0.771-0.771,1.67-1.351,2.659-1.721    c0.841-0.319,1.75-0.489,2.681-0.489c2.01,0,3.91,0.79,5.34,2.229C356.74,293.44,357.52,295.33,357.52,297.33z" fill="#DAE8EB"/><path d="M452.13,297.33c0,22.5-7.311,43.33-19.7,60.229c-18.59,25.399-48.62,41.921-82.439,41.921    c-39.71,0-75.311-22.66-92.229-58.171l15.71-4.471l2.021-0.569c4.21,8.051,9.648,15.239,16.02,21.391    c15.431,14.92,36.319,23.729,58.479,23.729c17.17,0,33.149-5.181,46.471-14.061c22.63-15.07,37.569-40.82,37.569-70    c0-46.35-37.7-84.06-84.04-84.06c-19.221,0-38.01,6.649-52.899,18.729c-13.561,11-23.41,26.061-28.061,42.74l-6.88-0.431    l-11.541-0.71c3.07-12.83,8.63-24.82,16.16-35.37c13.021-18.26,31.91-32.221,53.921-38.8c8.579-2.58,17.579-4,26.71-4.23    l0.399-0.01c0.729-0.01,1.46-0.03,2.189-0.03C406.31,195.16,452.13,241,452.13,297.33z" fill="#00CEFF"/><path d="M326.92,106.52l14.449,78.99c-2.83,0.22-5.649,0.539-8.439,0.97c-3.29,0.49-6.529,1.14-9.739,1.92    L304.77,87.73c20.631-2.4,93.37-13.38,135.66-52.391l5.83,6.36c-14.34,11.59-66.141,50.34-122.771,54.61    c-1.05,0.09-2.109,0.149-3.16,0.21c-1.3,0.069-2.47,0.63-3.311,1.5c-0.92,0.92-1.47,2.21-1.43,3.62    c0.061,2.359,1.75,4.3,3.979,4.76c0.33,0.07,0.67,0.11,1.021,0.11L326.92,106.52z" fill="#DAE8EB"/><path d="M158.72,98.49l-57.78,10.45H36.69c-4.09-5.97-5.069-11.61-2.91-16.78c2.021-4.83,6.771-8.96,12.86-11.53    c3-1.27,6.33-2.159,9.82-2.56c1.25-0.14,2.52-0.21,3.79-0.21c9.42,0,18.04,4,26.37,7.88c6.81,3.17,13.25,6.16,20.17,7.19    c1.649,0.239,3.34,0.369,5,0.369c9.569,0,17.42-3.949,23.72-7.13c3.22-1.62,6.27-3.159,8.31-3.449    c1.79-0.261,3.471-0.391,4.99-0.391c4.49,0,7.561,1.13,9.12,3.351c0.85,1.21,1.3,2.739,1.49,4.38    C159.75,92.93,159.27,96.14,158.72,98.49z" fill="#00CEFF"/><path d="M483.579,478.82H28.42l16-26.46h22.76    c33.29,17.159,133.85,29.649,405.859,9.029L483.579,478.82z" enable-background="new    " opacity="0.3"/><polygon enable-background="new    " opacity="0.3" points="92.1,425.23 419.89,442.36 92.1,442.36   "/><path d="M124.08,265.9c-5.431,0.148-10.66,1.09-15.59,2.699L81.13,118.94L124.08,265.9    z" enable-background="new    " opacity="0.3"/><polygon enable-background="new    " fill="#FFFFFF" opacity="0.7" points="81.13,118.94 106.39,169.112 97.22,118.94   "/><path d="M158.72,98.49l-57.78,10.45H36.69c-4.09-5.97-5.069-11.61-2.91-16.78    c2.021-4.83,6.771-8.96,12.86-11.53c9.48,19.601,36.601,38.2,112.78,9.431C159.75,92.93,159.27,96.14,158.72,98.49z" enable-background="new    " opacity="0.3"/><path d="M159.42,90.06C102.84,107.12,46.64,80.63,46.64,80.63    c3-1.27,6.33-2.159,9.82-2.56c1.25-0.14,2.52-0.21,3.79-0.21c9.42,0,18.04,4,26.37,7.88c6.81,3.17,13.25,6.16,20.17,7.19    c1.649,0.239,3.34,0.369,5,0.369c9.569,0,17.42-3.949,23.72-7.13c3.22-1.62,6.27-3.159,8.31-3.449    c1.79-0.261,3.471-0.391,4.99-0.391c4.49,0,7.561,1.13,9.12,3.351C158.78,86.89,159.23,88.42,159.42,90.06z" enable-background="new    " opacity="0.3"/><path d="M323.49,96.31c-4.101,1.13-6.471,1.71-6.471,1.71    c0.921,2.859,2.188,5.574,2.551,8.38c6.68,51.85,3.62,82,3.62,82L304.77,87.73c20.631-2.4,93.37-13.38,135.66-52.391    C421.321,67.38,346.111,90.1,323.49,96.31z" enable-background="new    " opacity="0.3"/><path d="M341.369,185.51c-2.83,0.22-5.649,0.539-8.439,0.97    c0,0-0.92-62.29-12.34-79.97l6.33,0.01L341.369,185.51z" enable-background="new    " opacity="0.3"/><path d="M473.039,461.389c-112.46,7.891-401.869-7.141-401.869-7.141l25.81-1.89h370.6    L473.039,461.389z" enable-background="new    " opacity="0.3"/><polygon enable-background="new    " opacity="0.3" points="419.89,442.36 255.995,425.23 419.89,425.23   "/><path d="M143.84,373.929l-8.53,41.301c0,0-0.51-2.812-1.27-6.972    c-0.11-0.59-0.23-1.22-0.351-1.869c-0.16-0.891-0.33-1.841-0.51-2.811c-0.27-1.47-0.55-3.01-0.84-4.59l-0.29-1.58l-0.44-2.41    c-0.05-0.27-0.1-0.54-0.149-0.81l-0.29-1.61c-0.05-0.271-0.101-0.54-0.15-0.8l-0.29-1.601c-0.05-0.261-0.1-0.521-0.14-0.779    l-0.29-1.562l-0.41-2.26c-0.63-3.45-1.189-6.5-1.58-8.66C133.72,376.67,138.93,375.63,143.84,373.929z" enable-background="new    " opacity="0.3"/><polygon enable-background="new    " fill="#FFFFFF" opacity="0.7" points="143.84,373.929 143.84,415.23 151.39,415.23   "/><path d="M106.97,343.94l-8.18,14.22c-11.3-8.311-18.65-21.68-18.65-36.74    c0-16.159,8.46-30.39,21.18-38.47c-0.699,6.91-0.92,14.609-0.079,22.34c-3.061,4.63-4.851,10.181-4.851,16.13    C96.39,330.46,100.51,338.559,106.97,343.94z" enable-background="new    " opacity="0.3"/><path d="M156.76,354.73c-8.14,7.6-19.07,12.25-31.06,12.25    c-6.49,0-12.66-1.37-18.25-3.83l8.18-14.21c3.14,1.159,6.53,1.79,10.07,1.79c2.22,0,4.38-0.25,6.46-0.73    C138.92,352.679,147.03,354.36,156.76,354.73z" enable-background="new    " opacity="0.3"/><path d="M171.27,321.42c0,13.13-5.59,24.99-14.51,33.312v-52.62l-14.96-5.17    l-13.66-4.721l-26.82-9.271c7.03-4.47,15.36-7.07,24.271-7.09l5.72,0.35C153.8,278.99,171.27,298.19,171.27,321.42z" enable-background="new    " opacity="0.3"/><path d="M262.151,274.309l-11.541-0.71c3.07-12.83,8.63-24.82,16.16-35.37    C264.51,249.71,262.77,262,262.151,274.309z" enable-background="new    " opacity="0.3"/><path d="M269.16,327.67l-15.29,4.351c-4.011-11.09-6.051-22.739-6.051-34.689    c0-4.64,0.311-9.279,0.931-13.83l13.16,0.82C261.95,299.559,263.981,314.51,269.16,327.67z" enable-background="new    " opacity="0.3"/><path d="M432.43,357.559c-18.59,25.399-48.62,41.921-82.439,41.921    c-39.71,0-75.311-22.66-92.229-58.171l15.71-4.471c4.42,8.011,10.33,15.091,18.04,20.82c15.431,14.92,36.319,23.729,58.479,23.729    c17.17,0,33.149-5.181,46.471-14.061C407.571,364.9,419.531,361.67,432.43,357.559z" enable-background="new    " opacity="0.3"/><path d="M432.43,357.559l10.74-83.25l-45.341-56.479    c-63.329-30.66-131.061,20.4-131.061,20.4c13.021-18.26,31.91-32.221,53.921-38.8c8.579-2.58,17.579-4,26.71-4.23l0.399-0.01    c0.729-0.01,1.46-0.03,2.189-0.03c56.319,0,102.141,45.84,102.141,102.17C452.13,319.83,444.821,340.66,432.43,357.559z" enable-background="new    " opacity="0.3"/></g><path d="M117.37,325.88l-5.301,9.2c-3.51-3.5-5.68-8.33-5.68-13.66   c0-7.02,3.76-13.17,9.38-16.55C114.35,310.87,113.51,319.309,117.37,325.88z" enable-background="new    " opacity="0.3"/><path d="M138.49,335.88c-3.41,3.011-7.891,4.852-12.79,4.852   c-1.721,0-3.37-0.25-4.96-0.671l4.18-7.25C128.32,334.519,132.75,335.63,138.49,335.88z" enable-background="new    " opacity="0.3"/><path d="M145.01,321.42c0,5.75-2.521,10.92-6.521,14.46l-2.409-23.05   l-20.311-7.96c2.9-1.75,6.3-2.76,9.931-2.76C136.35,302.11,145.01,310.769,145.01,321.42z" enable-background="new    " fill="#FFFFFF" opacity="0.7"/><path d="M354.869,303.07c-1.369,1.17-3.08,1.81-4.88,1.81   c-2.01,0-3.891-0.779-5.311-2.188c-0.061-0.07-0.13-0.142-0.199-0.2c-1.32-1.41-2.04-3.229-2.04-5.16c0-2.021,0.779-3.91,2.21-5.34   c0.771-0.771,1.67-1.351,2.659-1.721C347.441,295.29,348.869,301.519,354.869,303.07z" enable-background="new    " opacity="0.3"/><path d="M357.52,297.33c0,2.021-0.789,3.91-2.21,5.34   c-0.14,0.141-0.29,0.28-0.439,0.4l-1.369-7.45l-6.19-5.351c0.841-0.319,1.75-0.489,2.681-0.489c2.011,0,3.91,0.79,5.34,2.229   C356.74,293.44,357.52,295.33,357.52,297.33z" enable-background="new    " fill="#FFFFFF" opacity="0.7"/></g></svg>