<?xml version="1.0" ?><!DOCTYPE svg  PUBLIC '-//W3C//DTD SVG 1.1//EN'  'http://www.w3.org/Graphics/SVG/1.1/DTD/svg11.dtd'><svg height="512px" style="enable-background:new 0 0 512 512;" version="1.1" viewBox="0 0 512 512" width="512px" xml:space="preserve" xmlns="http://www.w3.org/2000/svg" xmlns:xlink="http://www.w3.org/1999/xlink"><g id="B_-_178_x2C__Organization_x2C__Business_x2C__human_x2C__leadership_x2C__management"><g><path d="M232.58,156.347l-1.063,20.327h16.331h0.076h5.857    c-0.18-0.11-0.293-0.22-0.438-0.329L232.58,156.347z M261.768,182.46h-10.913v13.588h10.913V182.46z M267.555,198.684    l6.299,32.667h35.231v-35.817c0-1.648,1.319-3.003,3.003-3.003c1.648,0,3.002,1.355,3.002,3.003v36.038h22.452v-56.986    l-51.823-20.363l1.318,25.197c0.072,1.575-1.17,2.967-2.746,3.04h-16.736V198.684z M237.194,231.352l7.873-32.705V182.46h-16.591    c-1.572,0-2.891-1.282-2.891-2.894l1.319-25.344l-51.824,20.363v56.986h22.449v-36.038c0-1.648,1.354-3.003,3.042-3.003    c1.647,0,3.003,1.355,3.003,3.003v35.817H237.194z M267.956,231.352l-5.677-29.518h-12.085l-7.067,29.518H267.956z     M261.254,64.714c-6.959,4.396-16.187,7.068-26.148,7.068c-3.295,0-6.519-0.292-9.558-0.806c-2.052-0.365-4.028-0.841-5.936-1.428    c-0.767,3.04-1.207,6.262-1.207,9.596c0,11.829,4.614,28.896,13.257,41.494c6.374,9.229,14.944,15.931,25.418,15.931    c10.475,0,19.042-6.702,25.416-15.931c8.643-12.599,13.256-29.665,13.256-41.494c0-2.381-0.217-4.688-0.584-6.959    c-0.623,0.073-1.207,0.147-1.793,0.221c-1.539,0.109-3.114,0.182-4.653,0.182c-5.64,0-10.988-0.842-15.821-2.343    C268.578,68.889,264.697,66.986,261.254,64.714z M275.172,44.938c-0.734,6.007-3.881,11.464-8.755,15.896    c2.493,1.464,5.276,2.709,8.313,3.625c4.25,1.319,8.975,2.088,13.991,2.088c1.391,0,2.786-0.074,4.177-0.183l0.658-0.073    c-1.904-5.494-5.092-10.438-9.121-14.504C281.69,49.077,278.615,46.77,275.172,44.938z M221.555,63.836    c1.612,0.476,3.295,0.878,5.052,1.172c2.674,0.476,5.532,0.732,8.499,0.732c9.633,0,18.311-2.746,24.573-7.215    c5.896-4.175,9.524-9.889,9.633-16.078c-3.881-1.282-7.985-1.978-12.231-1.978c-10.694,0-20.364,4.321-27.358,11.316l-0.185,0.146    C226.206,55.339,223.46,59.368,221.555,63.836z M371.42,320.274c-5.789,0-10.988,2.308-14.725,6.08    c-3.735,3.772-6.08,8.972-6.08,14.723c0,5.75,2.345,10.949,6.08,14.686c3.772,3.771,8.973,6.116,14.725,6.116    c5.713,0,10.948-2.345,14.684-6.116c3.771-3.736,6.117-8.936,6.117-14.686c0-5.751-2.346-10.95-6.117-14.723l-0.107-0.146    C382.26,322.545,377.061,320.274,371.42,320.274z M418.773,416.961c0,1.685-1.354,3.04-3.041,3.04c-7.176,0-71.563,0-87.382,0    c-1.688,0-3.007-1.355-3.007-3.04v-15.528c0-7.838,3.151-14.942,8.314-20.07c5.163-5.163,12.234-8.35,20.072-8.35h36.658    c7.766,0,14.797,3.148,19.959,8.276l0.076,0.073c5.164,5.164,8.35,12.27,8.35,20.07V416.961z M142.777,303.172    c0,1.647-1.354,3.003-3.038,3.003c-1.651,0-3.006-1.355-3.006-3.003v-50.578c0-1.685,1.355-3.04,3.006-3.04l233.144,2.638    c1.685,0,3.004,1.354,3.004,3.003v49.001c0,1.685-1.355,3.04-3.004,3.04c-1.684,0-3.039-1.355-3.039-3.04V258.16l-227.067-2.527    V303.172z M252.427,438.423c0-1.685,1.354-3.04,3.042-3.04c1.647,0,3.002,1.355,3.002,3.04v26.405l128.438-0.623v-21.498    c0-1.685,1.354-3.04,3.038-3.04c1.688,0,3.006,1.355,3.006,3.04v24.502c0,1.647-1.318,3.003-3.006,3.003l-134.334,0.658h-0.072    h-0.072h-0.076h-0.073l-132.651,0.66c-1.684,0-3.003-1.355-3.003-3.004V443.22c0-1.647,1.319-3.004,3.003-3.004    c1.684,0,3.039,1.356,3.039,3.004v22.267l126.718-0.622V438.423z M251.22,320.274c-5.749,0-10.951,2.308-14.724,6.08l-0.145,0.146    c-3.664,3.735-5.934,8.899-5.934,14.577c0,5.75,2.342,10.949,6.078,14.686c3.736,3.771,8.975,6.116,14.724,6.116    c5.749,0,10.913-2.345,14.723-6.116c3.736-3.736,6.078-8.936,6.078-14.686c0-5.751-2.342-10.95-6.117-14.723    C262.133,322.582,256.969,320.274,251.22,320.274z M139.956,320.274c-5.749,0-10.984,2.308-14.72,6.08l-0.148,0.146    c-3.661,3.735-5.933,8.899-5.933,14.577c0,5.75,2.309,10.949,6.081,14.686c3.735,3.771,8.971,6.116,14.72,6.116    c5.716,0,10.916-2.345,14.688-6.116c3.772-3.736,6.08-8.936,6.08-14.686c0-5.751-2.308-10.95-6.08-14.723    S145.672,320.274,139.956,320.274z M297.953,416.961c0,1.685-1.395,3.04-3.006,3.04c-7.252,0-71.636,0-87.458,0    c-1.647,0-3.002-1.355-3.002-3.04v-15.528c0-7.838,3.223-14.942,8.35-20.07c5.127-5.163,12.234-8.35,20.071-8.35h36.624    c7.764,0,14.868,3.148,19.995,8.276l0.075,0.073c5.128,5.164,8.351,12.27,8.351,20.07V416.961z M186.688,416.961    c0,1.685-1.391,3.04-3.039,3.04c-7.215,0-71.599,0-87.421,0c-1.684,0-3.002-1.355-3.002-3.04v-15.528    c0-7.838,3.147-14.942,8.314-20.07c5.163-5.163,12.267-8.35,20.104-8.35h36.624c7.765,0,14.835,3.148,19.963,8.276l0.072,0.073    c5.163,5.164,8.386,12.27,8.386,20.07V416.961z M256.933,176.673h7.765h0.072h16.336l-1.099-20.62l-22.634,20.291    C257.226,176.453,257.08,176.563,256.933,176.673z" style="fill-rule:evenodd;clip-rule:evenodd;"/></g></g><g id="Layer_1"/></svg>