<?xml version="1.0" ?><!DOCTYPE svg  PUBLIC '-//W3C//DTD SVG 1.1//EN'  'http://www.w3.org/Graphics/SVG/1.1/DTD/svg11.dtd'><svg enable-background="new 0 0 100 100" height="100px" id="Layer_1" version="1.1" viewBox="0 0 100 100" width="100px" xml:space="preserve" xmlns="http://www.w3.org/2000/svg" xmlns:xlink="http://www.w3.org/1999/xlink"><g><g><g><g/></g><g/></g></g><g><path d="M52,40.334C52,42.816,54.35,45,56.83,45h13c2.482,0,4.17-2.184,4.17-4.666v-17   C74,20.853,72.312,19,69.83,19h-13C54.35,19,52,20.853,52,23.334V24H22v-0.666C22,20.853,20.312,19,17.83,19h-13   C2.35,19,0,20.853,0,23.334v17C0,42.816,2.35,45,4.83,45h13c2.482,0,4.17-2.184,4.17-4.666V40h30V40.334z M56,39.834v-16v-0.5   C56,23.063,56.559,23,56.83,23h13c0.271,0,0.17,0.063,0.17,0.334v17C70,40.606,70.102,41,69.83,41h-13   C56.559,41,56,40.606,56,40.334V39.834z M17.83,41h-13C4.559,41,4,40.606,4,40.334v-17C4,23.063,4.559,23,4.83,23h13   c0.271,0,0.17,0.063,0.17,0.334v0.5v16v0.5C18,40.606,18.102,41,17.83,41z M27,36h-5v-8h5V36z M45,36H29v-8h16V36z M47,36v-8h5v8   H47z" fill="#231F20"/><path d="M95.83,55h-13C80.35,55,78,56.853,78,59.334V60H48v-0.666C48,56.853,46.312,55,43.83,55h-13   C28.35,55,26,56.853,26,59.334v17C26,78.816,28.35,81,30.83,81h13c2.482,0,4.17-2.184,4.17-4.666V76h30v0.334   C78,78.816,80.35,81,82.83,81h13c2.482,0,4.17-2.184,4.17-4.666v-17C100,56.853,98.312,55,95.83,55z M43.83,77h-13   C30.559,77,30,76.606,30,76.334v-17C30,59.063,30.559,59,30.83,59h13c0.271,0,0.17,0.063,0.17,0.334v0.5v16v0.5   C44,76.606,44.102,77,43.83,77z M53,72h-5v-8h5V72z M71,72H55v-8h16V72z M78,72h-5v-8h5V72z M95.83,77h-13   C82.559,77,82,76.606,82,76.334v-0.5v-16v-0.5C82,59.063,82.559,59,82.83,59h13c0.271,0,0.17,0.063,0.17,0.334v17   C96,76.606,96.102,77,95.83,77z" fill="#231F20"/></g></svg>